<svg width="666" height="508"   viewBox="0 0 666 508" fill="none" xmlns="http://www.w3.org/2000/svg">
<path id="c-1"  class="cursor-pointer fill-orange-hover" d="M557.408 433.256C557.242 435.417 556.578 437.079 555.913 437.245C554.751 437.411 553.423 437.577 552.26 437.577C550.6 437.577 548.773 437.577 546.947 438.076C544.456 438.907 542.962 440.735 542.63 443.726C542.63 444.391 542.63 444.889 542.464 445.554C542.464 447.216 542.298 448.878 541.634 450.374C540.637 452.7 538.147 454.03 535.49 455.359C534.328 455.858 533.165 456.523 532.169 457.187C531.339 457.686 530.509 458.185 529.845 458.683L528.848 459.182C527.52 460.013 526.026 461.01 524.863 461.841C522.373 463.503 520.048 464.998 517.557 466.162C516.229 466.66 512.41 468.488 513.572 472.477C514.236 474.804 515.897 476.465 517.391 477.961C518.055 478.626 518.72 479.291 519.218 479.955C520.38 481.451 521.21 483.113 522.04 484.941C522.705 486.437 523.369 487.933 524.365 489.262L524.863 489.927C525.693 491.256 526.524 492.586 527.52 493.749C528.848 495.577 530.841 496.408 532.501 497.239C532.999 497.405 534.162 497.904 534.328 498.569C533.498 498.735 532.667 498.735 531.837 498.735H531.173C529.512 498.901 527.686 498.901 526.026 499.4C525.693 499.566 524.863 499.4 524.199 499.4C522.539 499.4 520.546 499.233 519.052 500.895C518.388 501.56 518.055 502.391 517.889 503.056C517.723 503.388 517.723 503.554 517.557 503.887C516.229 506.712 513.406 508.041 509.919 507.709C507.927 507.543 506.1 507.543 503.776 507.875C503.278 508.041 502.779 508.041 502.447 507.875C501.617 507.543 501.617 507.211 501.451 505.549C501.451 505.05 501.451 504.551 501.451 504.053C501.451 503.222 501.285 502.391 501.119 501.394C500.953 500.563 500.953 499.732 500.787 498.901C500.621 497.239 500.123 495.577 499.791 494.082C499.459 492.752 498.96 491.256 498.794 489.927C498.794 489.594 498.794 489.428 498.794 489.096C498.794 487.434 498.628 484.775 496.304 483.778C495.474 483.445 494.643 483.445 493.979 483.445C493.647 483.445 493.149 483.445 492.817 483.445C492.485 483.445 492.319 483.445 491.987 483.445C490.492 483.445 488.832 483.445 487.337 484.775C486.341 485.606 486.009 486.603 485.843 487.6C485.677 487.933 485.677 488.431 485.511 488.597C485.179 489.096 484.681 489.594 484.183 489.428C483.186 489.096 482.024 487.434 481.194 486.271L480.696 485.606C478.869 482.781 476.545 480.62 474.386 478.792C473.888 478.294 473.39 477.629 473.058 476.964C472.726 476.465 472.394 475.967 472.061 475.635C470.899 474.139 469.571 473.142 468.242 472.145C467.744 471.812 467.246 471.48 466.914 470.981C464.589 469.153 461.601 467.99 457.45 467.325C456.619 467.159 456.121 466.66 455.291 465.663C454.461 464.666 453.465 463.503 451.804 463.004C450.144 462.506 448.649 462.838 447.321 463.17H447.155C446.159 463.503 445.661 463.336 444.996 463.004C442.174 461.675 439.683 460.345 436.528 459.68C433.207 458.849 429.554 458.185 425.735 457.354C421.252 456.689 417.433 457.187 414.278 458.849C413.946 459.016 413.448 459.348 412.95 459.68C410.957 460.844 409.463 461.675 408.135 461.508C407.969 461.508 407.803 461.342 407.471 461.342C407.138 461.176 406.972 461.01 406.972 460.844V460.677V460.511C406.972 460.345 406.972 460.179 406.972 460.013V459.847V459.68V459.514C407.138 459.182 407.304 458.683 407.637 458.351L407.803 458.185C407.803 458.185 407.803 458.018 407.969 458.018C408.301 457.52 408.799 457.187 409.131 456.689C410.459 455.526 411.788 454.528 413.282 453.864C414.112 453.365 414.776 453.033 415.441 452.7C415.607 452.534 415.939 452.534 416.105 452.534C417.101 452.202 419.924 451.205 419.26 448.213C419.26 448.047 419.094 447.881 419.094 447.548C418.928 447.216 418.928 447.05 418.762 446.717C418.429 446.053 417.931 445.554 417.433 444.889C417.433 444.723 417.267 444.723 417.267 444.557C417.101 444.391 416.935 444.058 416.603 443.892C415.773 442.729 415.275 440.569 416.271 439.571C416.603 439.405 416.935 439.239 417.433 439.073H417.599C417.765 439.073 417.931 438.907 418.097 438.907C418.263 438.907 418.429 438.74 418.595 438.74C418.761 438.74 418.928 438.574 418.928 438.574C419.094 438.574 419.26 438.408 419.26 438.408C419.592 438.076 420.09 437.743 420.256 437.411C420.422 437.245 420.422 437.079 420.422 437.079C420.92 435.915 420.754 434.586 420.588 434.087C420.588 433.921 420.588 433.921 420.588 433.921C420.588 433.755 420.422 433.589 420.422 433.256V433.09C420.09 432.259 419.592 431.428 419.26 430.597C419.094 430.431 418.928 430.099 418.928 429.932C418.595 429.434 418.429 428.935 418.263 428.437C418.097 428.104 418.097 427.938 417.931 427.606C417.931 427.44 417.765 427.273 417.765 427.107C417.433 426.11 417.267 424.947 417.101 423.95C416.105 418.964 416.271 414.975 417.599 411.652C417.931 410.654 418.429 409.657 418.928 408.826C419.094 408.66 419.094 408.494 419.26 408.328C419.426 408.162 419.426 407.995 419.592 407.829C419.758 407.663 419.758 407.497 419.924 407.497C419.924 407.331 420.09 407.331 420.09 407.331C420.256 407.164 420.422 407.164 420.422 406.998H420.588C420.92 406.832 421.086 406.666 421.418 406.666C421.584 406.666 421.75 406.5 421.916 406.5C423.079 406.333 424.407 406.333 425.403 406.5H426.233C428.724 406.666 430.883 406.832 431.381 408.328C431.713 408.826 431.713 409.657 431.713 410.488C431.713 411.319 431.879 412.316 432.211 413.313C432.875 415.308 434.37 416.471 435.698 417.634C436.362 418.133 436.86 418.631 437.358 419.13C438.189 419.961 438.687 420.792 439.019 421.623C439.185 422.121 439.351 422.62 439.517 423.285C439.683 424.116 439.849 424.947 440.181 425.611C441.675 428.935 445.328 429.6 447.985 430.099C448.317 430.265 448.815 430.265 449.147 430.265C450.642 430.597 451.97 431.096 453.465 431.76C454.627 432.259 455.789 432.591 456.951 433.09C457.45 433.256 457.948 433.422 458.446 433.589C460.77 434.419 463.261 435.25 466.084 434.087C466.914 433.755 467.412 433.256 468.076 432.758C469.073 432.093 469.737 431.594 470.401 431.594C471.065 431.594 471.895 432.591 471.895 433.256C471.895 433.422 471.895 433.589 471.895 433.755C471.729 434.586 471.563 435.749 472.227 436.746C473.224 438.242 475.05 438.076 476.046 438.076H477.043C479.201 437.909 481.36 437.743 483.02 438.907C483.352 439.073 483.518 439.571 483.85 440.402C484.183 441.399 484.681 442.895 486.175 443.726C487.67 444.557 489.496 444.557 491.488 443.56C492.651 443.061 493.813 442.397 494.809 441.732C496.138 440.901 497.3 440.07 498.794 439.738C499.791 439.405 500.953 439.405 502.115 439.405C503.61 439.405 504.938 439.405 506.432 438.907C508.757 438.242 510.75 436.58 512.41 435.25L513.24 434.586C513.738 434.253 514.236 433.755 514.735 433.256C516.727 431.594 518.886 429.6 521.044 429.434C521.542 429.434 522.04 429.434 522.539 429.434C524.033 429.6 526.026 429.6 527.686 427.772C528.184 427.273 528.35 426.775 528.682 426.442C528.848 426.11 529.014 425.778 529.18 425.611C529.346 425.445 530.011 425.445 530.343 425.445H530.509C532.667 425.445 534.826 425.445 536.652 425.778C538.147 425.944 538.479 426.276 538.479 426.442C538.479 426.941 538.313 427.44 538.313 428.104C538.147 428.769 537.981 429.6 537.981 430.597C537.981 431.594 538.479 432.425 538.811 433.256C538.977 433.422 538.977 433.589 539.143 433.755C540.471 436.58 542.464 436.248 543.294 435.915C544.29 435.583 544.954 434.586 545.453 433.921C545.619 433.755 545.785 433.589 545.785 433.422C546.947 432.093 549.77 429.766 551.596 431.262L551.762 431.428C552.426 432.093 553.423 432.591 554.917 431.927C555.415 431.594 555.747 431.594 555.747 431.594C555.747 431.594 555.747 431.594 555.913 431.76C556.079 431.927 556.079 432.093 556.245 432.425C557.242 431.594 557.408 432.425 557.408 433.256Z M665.004 476.964C664.506 478.127 663.675 479.29 662.679 480.454C662.347 480.952 661.849 481.451 661.517 481.949C660.687 483.113 660.022 483.944 659.026 484.941C657.864 486.436 654.543 490.259 652.218 489.926C650.89 489.76 650.06 488.929 649.064 487.932C648.067 486.935 647.071 485.772 645.245 485.273C643.252 484.608 641.426 484.775 639.931 485.606C638.769 486.436 637.939 487.766 637.773 489.428C637.607 490.757 638.105 492.253 638.603 494.081C639.267 496.408 640.097 499.732 638.769 500.563C637.275 501.56 633.788 499.399 632.127 498.236L631.629 497.904C627.312 495.245 625.486 488.929 623.825 483.445C623.327 481.617 622.829 479.955 622.165 478.293C619.84 471.978 620.338 468.488 623.991 465.995C625.818 464.666 627.644 464.666 629.803 464.499C630.633 464.499 631.463 464.499 632.293 464.333C632.459 464.333 632.791 464.333 633.29 464.333C635.78 464.333 636.942 464.167 637.607 463.502C638.271 463.004 638.603 462.173 638.603 461.176C638.437 459.181 636.444 457.021 635.282 456.356C634.618 456.024 633.954 455.691 633.29 455.359C632.791 455.193 632.293 455.027 631.961 454.694C631.629 454.528 631.463 454.362 631.297 454.196C630.633 453.697 629.803 453.032 628.806 452.7C628.308 452.534 627.644 452.534 626.98 452.534C626.316 452.534 625.486 452.534 624.821 452.7C624.157 452.7 623.493 452.866 622.995 452.866C622.165 452.866 621.5 452.866 620.67 452.866C619.508 452.866 618.346 453.032 617.349 452.866C616.685 452.866 616.685 452.7 616.187 451.37C616.021 451.038 616.021 450.706 615.855 450.373C614.859 447.714 612.534 447.216 610.874 447.05C610.376 446.883 609.877 446.883 609.379 446.717C607.885 446.219 606.557 445.055 605.228 443.726C604.564 443.061 603.9 442.562 603.236 442.064C601.077 440.402 598.753 438.74 596.262 437.577C595.764 437.411 595.1 437.244 594.601 436.912C593.439 436.58 592.443 436.081 591.613 435.582C590.948 435.084 590.616 434.419 590.118 433.422C589.786 432.757 589.454 432.093 588.956 431.428C586.299 427.938 581.982 426.774 577.333 428.436C573.348 429.766 570.359 429.433 567.868 427.605C564.049 424.78 563.053 422.786 562.887 421.789C562.887 421.456 562.887 421.29 562.887 420.958C562.887 419.961 562.887 418.631 561.227 417.468C559.566 416.304 557.74 416.471 556.245 416.637C555.913 416.637 555.581 416.637 555.249 416.803C555.581 416.803 555.747 416.637 555.913 416.637C556.245 416.637 556.411 416.637 556.578 416.471C558.57 416.138 559.234 415.806 560.563 414.31C562.555 412.15 565.71 410.82 568.367 411.153C570.691 411.319 573.182 411.485 575.672 411.319C579.325 411.153 581.816 410.155 584.639 408.826C585.635 408.327 585.967 408.494 587.129 409.491C587.794 409.989 588.624 410.488 589.62 410.986C592.277 411.984 595.266 412.15 598.088 412.316C600.081 412.316 601.907 412.482 603.568 412.814C605.062 413.147 607.387 413.645 608.881 414.144C609.379 414.31 609.877 414.643 610.542 415.141C611.372 415.64 612.202 416.304 613.198 416.637C615.689 417.468 618.346 417.8 620.67 418.133L622.165 418.299C622.663 418.299 623.327 418.465 623.825 418.465C625.319 418.631 626.98 418.797 628.142 419.296C628.308 419.628 628.142 420.625 628.142 421.124C627.976 421.789 627.976 422.62 627.976 423.284C628.142 425.611 629.138 428.436 633.622 429.433C634.12 429.6 634.618 429.6 635.116 429.766C636.776 430.098 637.939 430.264 639.433 431.262C640.928 432.259 642.09 432.923 643.086 434.253C643.75 435.084 644.414 436.081 645.079 437.078L645.743 438.075C647.735 440.901 651.056 444.39 654.211 446.717C654.709 447.05 655.041 447.216 655.539 447.382C655.871 447.548 656.37 447.714 656.37 447.881C656.868 448.711 656.536 450.872 656.204 452.534C656.037 454.029 655.871 455.359 655.871 456.522C656.204 459.181 656.868 460.843 658.86 462.505C659.69 463.17 660.023 464.001 660.355 465.164C660.687 465.995 661.019 466.992 661.683 467.989C662.679 469.651 664.008 470.15 664.838 470.482C665.834 470.815 666 470.981 666 471.978C666 473.806 665.834 475.468 665.004 476.964Z"/>
<path id="c-3" class="cursor-pointer fill-orange-hover" d="M417.599 434.419C417.433 434.419 417.433 434.253 417.599 434.419C417.599 434.253 417.599 434.253 417.599 434.087V433.921V433.755C417.267 433.09 416.935 432.259 416.603 431.594C416.105 430.431 415.44 429.434 415.108 428.104C414.61 426.775 414.278 425.279 414.112 423.95C413.116 418.465 413.282 413.812 414.776 409.823C414.942 409.491 414.942 409.159 415.108 408.992C415.274 408.66 415.274 408.494 415.44 408.161C415.607 407.829 415.607 407.663 415.773 407.331C415.773 407.331 415.939 407.164 415.939 406.998C416.105 406.832 416.105 406.666 416.271 406.333C416.437 406.167 416.437 406.001 416.603 405.835C416.769 405.502 416.935 405.336 417.267 405.004C417.267 405.004 417.267 404.838 417.433 404.838C416.935 404.505 416.603 404.173 416.105 403.841C415.939 403.674 415.607 403.342 415.274 403.176C414.444 402.511 413.614 401.846 413.116 400.517C412.784 399.852 412.784 399.021 412.618 398.356C412.452 397.858 412.452 397.359 412.286 396.861L411.954 396.196C411.123 394.534 410.127 393.038 408.799 392.041C408.301 391.543 407.636 391.21 406.972 390.712L406.474 390.379C405.81 389.881 405.146 389.382 404.648 388.884C404.482 388.717 404.15 388.551 403.983 388.385C403.485 387.886 402.821 387.554 402.323 387.055C401.825 386.723 401.493 386.391 400.995 386.058C399.168 384.563 397.342 382.734 396.013 380.906C394.685 379.078 393.689 377.583 392.859 375.921C392.859 375.755 392.693 375.755 392.36 375.422L392.028 375.09C391.364 374.425 390.7 373.76 390.036 372.929C389.538 372.431 389.206 371.766 388.707 371.101C388.375 370.603 388.043 370.104 387.711 369.772C386.715 368.608 386.051 367.445 385.719 365.949C385.553 365.617 385.553 365.118 385.553 364.786C385.387 364.121 385.387 363.789 385.055 363.456C384.058 362.127 383.228 360.631 382.232 359.136C382.066 358.969 381.9 358.803 381.9 358.637C381.568 357.972 380.903 357.307 380.737 356.144C380.737 355.812 380.737 355.313 380.737 355.147C380.737 355.147 380.737 354.981 380.737 354.815C380.737 354.648 380.737 354.482 380.571 354.482C380.405 354.316 380.405 353.984 380.405 353.817C380.239 352.987 379.907 352.156 379.575 351.325C379.409 350.992 379.243 350.66 379.077 350.328C378.579 349.497 378.081 348.832 377.583 348.499C377.417 348.499 377.251 348.333 377.251 348.333C377.251 348.333 377.084 348.333 376.918 348.499C376.42 348.832 376.088 348.998 375.59 349.33C375.258 349.663 374.926 349.829 374.594 350.161L372.435 351.491C371.439 352.156 370.609 352.488 369.613 352.82L369.28 352.987C367.62 353.651 365.627 353.817 363.137 353.485C361.31 353.319 359.65 352.987 358.156 352.488C356.827 352.156 355.831 351.325 355.001 350.66C354.503 350.328 354.004 349.829 353.672 349.663C352.842 349.164 351.846 348.666 351.016 348.333C350.85 348.333 350.684 348.167 350.518 348.167C350.185 348.167 349.853 348.001 349.521 347.835C349.023 347.668 348.691 347.502 348.193 347.17C347.861 347.004 347.529 346.838 347.197 346.671C345.868 346.173 344.706 345.674 343.71 345.176C343.378 345.009 342.88 344.677 342.547 344.511C342.049 344.179 341.717 344.012 341.219 343.68C340.721 343.348 340.223 343.015 339.725 342.849C339.393 342.517 338.894 342.35 338.562 342.184C338.23 342.018 337.898 341.852 337.566 341.852C337.4 341.686 337.068 341.686 336.902 341.519C336.736 341.519 336.57 341.353 336.404 341.353C336.238 341.353 336.072 341.187 335.906 341.187H335.74C335.574 341.187 335.408 341.353 335.242 341.353C333.747 341.852 331.755 342.683 330.094 343.68C329.43 344.179 328.766 344.843 328.102 345.342C327.77 345.674 327.271 346.173 326.607 346.339C325.943 346.671 325.279 346.505 324.947 346.505H324.781C323.951 346.505 323.286 346.505 322.456 346.339C321.128 346.173 319.799 345.84 318.637 345.508C317.475 345.176 316.313 344.843 315.15 344.677C314.486 344.677 313.822 344.511 313.324 344.345C312.992 344.345 312.66 344.179 312.161 344.179C311.995 344.179 311.829 344.179 311.663 344.179C310.999 344.012 310.003 344.012 309.339 343.348C309.007 343.181 308.675 342.849 308.176 342.517C307.844 342.35 307.678 342.184 307.346 341.852C306.018 341.021 305.188 340.522 304.025 340.356C302.863 340.19 301.535 340.19 300.206 340.19H298.712C297.882 340.19 297.052 340.19 296.221 340.024C295.391 339.858 294.561 339.193 294.063 338.694C293.897 338.528 293.731 338.528 293.731 338.362C293.067 337.863 292.568 337.365 292.07 336.7C291.738 336.368 291.406 335.869 290.908 335.703C290.244 335.204 289.912 335.038 289.414 335.038C289.081 335.038 288.749 335.204 288.417 335.37L287.919 335.537C287.753 335.537 287.587 335.703 287.421 335.703H287.255C286.757 336.035 286.259 336.866 285.761 337.531C285.595 337.863 285.429 338.03 285.262 338.362C284.93 338.86 284.598 339.193 284.266 339.691C283.768 340.356 283.436 340.855 283.104 341.353C282.938 341.686 282.938 341.686 282.938 342.517V342.849C283.104 343.846 282.938 345.009 282.938 346.007C282.938 346.339 282.938 346.671 282.938 347.17V348.001C282.938 349.164 282.772 350.328 282.772 351.491C282.772 353.153 282.772 354.981 282.274 356.643C282.108 357.474 281.776 358.305 281.443 359.136C281.111 359.967 280.613 360.465 280.115 360.964C279.783 361.296 279.451 361.628 279.285 361.961C278.621 363.124 278.289 364.121 277.957 364.952C277.791 365.783 277.791 366.614 277.957 367.113C278.123 367.611 278.621 367.944 278.953 367.944C280.115 368.442 280.779 369.439 281.277 370.104L281.61 370.603C282.108 371.267 282.772 372.098 282.772 373.262C282.772 373.926 282.938 374.591 283.27 374.924C283.602 375.256 284.1 375.422 284.764 375.755L285.096 375.921C286.259 376.419 287.255 377.084 287.919 377.583C288.085 377.749 288.417 377.915 288.583 378.081C289.081 378.414 289.58 378.746 290.078 379.244C291.406 380.408 292.236 381.904 293.067 383.233L293.565 384.064C294.229 385.061 295.225 386.058 296.719 387.055C298.048 388.053 299.542 388.717 301.535 389.382C302.033 389.548 302.365 389.714 302.863 390.047C303.195 390.213 303.693 390.545 303.859 390.545C305.022 390.545 306.184 390.379 307.678 391.044C308.675 391.376 309.339 391.875 309.837 392.373C310.169 392.706 310.335 392.872 310.667 393.204C310.833 393.371 310.999 393.537 311.165 393.703C311.663 394.202 312.66 394.534 312.992 394.534C313.822 394.866 314.32 394.866 315.15 394.866C315.482 394.866 315.814 394.866 316.479 394.035C316.977 393.537 317.143 393.371 317.143 392.706C317.143 391.709 317.143 391.376 316.811 390.712C316.479 390.047 315.482 389.548 314.486 389.05L313.822 388.717C311.663 387.72 310.335 386.391 309.837 384.895C309.505 383.898 309.671 382.568 309.837 382.07C310.169 380.408 310.667 379.244 311.331 378.746C312.494 377.915 313.988 377.749 315.15 377.749H315.482C317.973 377.583 319.633 379.078 320.796 380.408L320.962 380.574C321.46 381.073 321.792 381.571 322.29 382.07C322.622 382.402 322.788 382.734 323.12 383.067L323.452 383.399C324.117 384.064 324.781 384.729 325.445 385.394L325.777 385.726C326.109 386.058 326.275 386.058 326.441 386.224L326.939 386.391C327.271 386.557 327.77 386.723 328.102 386.889C328.6 387.222 329.264 387.388 329.928 387.72C331.256 388.219 332.585 388.884 333.747 389.714C334.079 390.047 334.411 390.213 334.743 390.379C335.075 390.712 335.408 390.878 335.906 391.21C336.404 391.543 336.902 392.041 337.234 392.373C337.4 392.54 337.566 392.706 337.898 392.872C338.894 393.703 340.057 394.7 340.555 395.863C341.219 397.027 341.385 398.356 341.717 399.52C341.717 399.852 341.883 400.184 341.883 400.517C342.049 401.182 342.049 401.846 342.215 402.345C342.215 402.677 342.215 403.01 342.215 403.342C342.381 404.339 342.547 405.17 342.713 406.001C343.046 407.164 343.378 408.328 344.042 409.159L344.208 409.491C344.374 409.657 344.54 409.99 344.706 409.99C344.706 409.99 345.37 409.99 345.536 409.99H345.702C346.366 409.99 347.197 409.99 347.861 409.99C349.687 409.99 351.348 410.156 353.34 410.654C354.835 410.987 356.495 411.319 357.657 412.482C358.654 413.313 359.318 414.31 359.816 415.308C360.148 415.806 360.646 416.139 361.144 416.637C361.476 416.803 361.642 416.97 361.975 417.302C363.303 418.299 364.631 419.13 366.292 419.961L366.79 420.293C367.122 420.46 367.62 420.626 367.952 420.792L368.45 421.124C369.446 421.623 370.609 422.121 371.605 423.119C371.937 423.451 372.269 423.783 372.601 424.116C372.933 424.448 373.265 424.947 373.598 425.113C373.764 425.279 374.096 425.445 374.262 425.611C374.76 425.944 375.258 426.276 375.756 426.775C376.254 427.273 376.752 427.772 377.084 428.27C377.749 429.101 378.413 429.766 379.243 430.265C381.07 431.262 383.062 433.09 383.228 435.417C383.394 438.076 381.734 440.568 380.571 442.23C380.405 442.563 380.073 442.729 379.907 443.061C379.077 444.058 378.413 444.889 378.081 446.053C377.915 446.884 377.915 447.715 377.915 448.213C378.081 448.546 378.247 448.712 379.077 449.21C379.409 449.376 379.575 449.543 379.907 449.709C380.405 450.041 381.07 450.374 381.734 450.706C382.73 451.205 383.726 451.703 384.556 452.368C385.221 452.867 385.719 453.531 386.051 454.03L386.217 454.362C387.213 455.692 388.043 456.689 389.206 457.354L389.538 457.52C389.87 457.686 390.368 458.018 390.7 458.018C390.866 457.852 391.032 457.686 391.032 456.689C391.032 456.356 391.032 456.024 391.198 455.858C391.198 455.359 391.032 455.027 390.036 454.03C389.372 453.531 388.707 452.866 388.209 452.202C387.877 451.869 387.545 451.537 387.213 451.205C386.217 450.207 385.719 448.213 386.051 447.05C386.383 444.889 389.372 443.892 390.036 443.726C391.862 443.394 393.689 444.225 395.017 444.889L395.515 445.222C397.01 445.887 398.172 446.717 399.168 447.715C399.5 448.047 399.998 448.379 400.663 448.712C401.161 449.044 401.493 449.377 401.991 449.709C403.153 450.706 403.651 451.703 404.15 452.7L404.316 453.033C404.814 454.03 405.146 455.193 405.478 456.19C405.976 455.526 406.308 455.027 406.972 454.528C407.138 454.362 407.138 454.362 407.304 454.196C407.47 454.03 407.47 454.03 407.636 453.864C409.131 452.534 410.625 451.537 412.12 450.706C412.95 450.207 413.78 449.709 414.61 449.376C414.942 449.21 415.274 449.044 415.607 449.044C415.939 448.878 416.271 448.878 416.603 448.712C416.437 448.047 415.939 447.548 415.44 446.884C415.108 446.551 414.776 446.053 414.444 445.554C412.784 443.061 412.12 439.239 414.61 436.912C415.44 436.248 416.271 435.915 417.101 435.583C417.267 435.583 417.433 435.417 417.599 435.417C417.765 435.417 417.931 435.25 418.097 435.25C418.097 435.25 418.263 435.25 418.263 435.084C418.263 434.918 418.429 434.752 418.595 434.752C417.765 434.752 417.599 434.586 417.599 434.419Z"/>
<path id="c-4" class="cursor-pointer fill-orange-hover" d="M386.051 171.341C386.051 172.172 386.051 172.837 386.051 173.668C386.051 174.499 386.217 175.496 386.383 176.493C386.549 177.324 386.549 178.653 386.549 179.651C386.549 179.983 386.549 180.315 386.549 180.648C386.549 181.479 386.549 182.31 386.549 183.307C386.715 185.633 387.711 187.96 389.206 190.121C390.866 192.281 390.866 195.106 390.866 197.931C390.866 199.095 390.866 200.092 390.7 201.255C390.534 202.419 390.534 203.748 390.534 205.078C390.534 207.238 389.704 209.399 388.043 210.728C387.711 210.894 387.545 211.06 387.213 211.393C386.715 211.725 386.217 212.224 385.553 212.722C385.055 213.221 384.722 213.886 384.39 214.384C384.224 214.717 384.058 215.049 383.726 215.381C382.564 216.877 382.232 218.539 382.066 219.868C381.9 220.533 381.734 221.198 381.568 221.863L381.402 222.694C381.069 223.525 380.903 224.189 380.571 225.02C380.239 225.685 379.907 226.184 379.409 226.848C379.077 227.347 378.911 227.679 378.579 228.178C378.413 228.51 378.247 228.677 378.081 229.009C377.583 229.674 377.084 230.505 376.752 231.336C376.586 232 376.586 232.499 376.586 232.831C376.586 232.997 376.586 232.997 376.586 233.164C376.586 233.33 376.586 233.662 376.586 233.828C376.586 234.161 376.42 234.659 376.42 234.992C376.42 236.487 376.42 237.817 376.586 239.645C376.752 240.808 376.586 242.138 376.586 243.467C376.586 243.966 376.586 244.465 376.586 244.963C376.586 245.628 376.586 246.293 376.752 246.791C376.752 247.622 376.918 248.287 376.752 248.952C376.586 251.112 377.084 253.273 377.749 255.101C377.915 255.765 378.247 256.43 378.413 257.095C378.579 257.593 378.579 257.76 378.413 258.424V258.923C378.413 260.253 378.579 261.416 378.745 262.579C378.911 263.078 378.911 263.41 378.911 263.909C379.077 265.238 379.575 267.232 380.571 268.728L380.737 268.894C381.236 269.559 381.734 270.39 382.398 270.889C383.062 271.387 383.726 271.553 384.39 271.72C384.556 271.72 384.888 271.886 384.888 271.72C384.888 271.886 384.888 272.384 384.888 272.717V273.215C384.888 275.376 384.556 276.872 383.56 278.533C382.73 279.863 381.734 280.694 380.405 281.691C379.077 282.688 378.081 283.851 377.084 285.015L376.918 285.181C375.59 286.677 374.594 288.006 373.93 290C373.764 290.499 373.431 291.164 373.099 291.662C372.933 291.995 372.767 292.327 372.601 292.493C371.937 293.989 372.435 295.152 372.933 295.817C372.933 295.983 373.099 296.149 373.099 296.316C373.431 296.98 373.598 297.978 373.764 298.809L373.93 299.307C374.926 304.293 374.926 309.611 374.096 315.76C373.93 316.258 373.93 316.923 373.93 317.422C373.93 317.754 373.93 318.253 373.764 318.585V319.25C373.598 320.413 373.598 321.576 373.598 322.906C373.598 323.072 373.598 323.238 373.431 323.571L373.265 323.903C373.099 324.568 372.933 325.233 372.933 325.897L372.767 326.562C372.601 327.892 372.435 329.554 372.435 331.382C372.435 331.714 372.435 332.046 372.435 332.379C372.269 334.041 372.269 336.201 373.764 337.697C375.092 338.86 375.922 340.356 376.088 341.353C376.088 341.685 376.088 342.184 376.088 342.683C376.088 342.849 376.088 343.181 375.922 343.514C375.756 343.846 375.756 344.344 375.59 345.009V345.175C375.59 345.342 375.59 345.508 375.59 345.508C375.258 345.674 374.76 345.84 374.428 346.006C373.93 346.339 373.431 346.671 372.933 347.003C372.601 347.17 372.269 347.502 371.937 347.668L369.779 348.998C369.114 349.496 368.284 349.829 367.454 350.161L367.122 350.327C365.96 350.826 364.631 350.826 362.639 350.66C360.978 350.493 359.484 350.161 358.155 349.829C357.491 349.663 356.827 349.164 356.163 348.499C355.665 348.001 355.001 347.668 354.336 347.17C353.34 346.671 352.178 346.006 351.016 345.508C350.684 345.342 350.351 345.342 350.019 345.175C349.853 345.175 349.687 345.175 349.521 345.009C349.189 344.843 348.857 344.677 348.525 344.511C348.027 344.344 347.529 344.012 347.031 343.846C345.868 343.513 344.872 343.015 344.042 342.516C343.71 342.35 343.378 342.184 343.046 341.852C342.547 341.519 342.049 341.187 341.551 341.021C341.219 340.854 340.887 340.688 340.721 340.356C340.223 340.024 339.559 339.525 338.728 339.193C338.396 339.193 338.23 339.026 337.898 338.86C337.566 338.694 337.4 338.694 337.068 338.528L336.736 338.362C336.238 338.029 335.408 337.697 334.411 337.863C333.913 337.863 333.581 338.029 333.249 338.195C333.249 338.195 333.083 338.195 332.917 338.362C331.256 339.026 329.098 339.857 327.105 341.021C326.109 341.685 325.279 342.35 324.615 343.181L324.449 343.347L324.283 343.514H324.117C323.951 343.514 323.784 343.514 323.618 343.514C322.954 343.514 322.29 343.514 321.626 343.347C320.464 343.181 319.301 342.849 318.139 342.683C316.811 342.35 315.648 342.018 314.32 341.852C313.822 341.852 313.158 341.685 312.66 341.519C312.327 341.519 311.829 341.353 311.497 341.353C311.331 341.353 311.165 341.353 310.833 341.187C310.501 341.187 310.003 341.021 309.837 341.021C309.505 340.854 309.173 340.522 309.007 340.356C308.675 340.024 308.342 339.857 308.01 339.691C306.682 338.86 305.188 337.863 303.195 337.697C301.701 337.531 300.372 337.531 298.878 337.531H297.882C297.716 337.531 297.55 337.531 297.218 337.531C296.719 337.531 296.055 337.531 295.723 337.531C295.557 337.531 295.059 337.032 294.727 336.866C294.561 336.7 294.395 336.534 294.229 336.367C293.731 336.035 293.399 335.536 292.9 335.204C292.402 334.705 292.07 334.373 291.572 333.874C290.41 333.044 289.413 332.379 287.753 332.379C287.421 332.379 287.089 332.379 286.757 332.545C286.425 332.711 286.093 332.711 285.761 332.877C285.761 332.877 285.761 332.711 285.594 332.711C285.428 332.379 285.096 331.88 284.93 331.714C283.768 330.385 282.606 329.221 281.443 328.224C280.945 327.725 280.447 327.393 279.949 326.895C278.787 325.731 277.624 324.568 276.628 323.238L275.798 322.407C275.3 321.909 274.802 321.41 274.304 320.746C273.639 319.915 272.975 319.25 272.311 318.419L271.481 317.422C269.488 314.929 267.33 312.436 265.503 309.943C264.175 308.281 262.681 306.786 261.352 305.456C261.02 305.124 260.688 304.791 260.522 304.625C260.024 304.127 259.692 303.628 259.028 303.129C258.363 302.631 257.699 302.132 257.035 301.8C256.869 301.634 256.537 301.468 256.371 301.301C256.039 301.135 255.541 300.803 255.209 300.47C254.876 300.138 254.544 299.806 254.046 299.639C253.548 299.307 253.05 298.809 252.386 298.31C252.054 297.978 251.722 297.645 251.39 297.479C250.725 296.98 250.061 296.482 249.397 295.983C248.069 294.986 246.74 293.989 245.578 292.826L245.246 292.493C244.084 291.33 243.087 290.167 242.423 288.837C241.759 287.508 240.763 286.51 239.933 285.68C239.434 285.181 238.936 284.682 238.604 284.35C237.774 283.353 237.11 282.522 236.28 281.525C235.283 280.361 234.453 279.364 233.623 278.367C233.125 277.702 232.627 277.37 232.129 276.872C231.796 276.539 231.464 276.207 231.132 275.874L230.634 275.376C230.136 274.711 229.638 274.046 228.974 273.548C227.811 272.384 226.483 272.052 225.321 271.553C224.657 271.387 224.158 271.221 223.66 270.889C222.166 270.058 220.339 268.728 219.177 267.565C217.185 265.571 214.196 262.579 212.369 259.255C211.539 257.76 210.543 256.596 209.381 255.433C208.882 254.934 208.55 254.436 208.052 253.771L207.72 253.273C207.388 252.774 206.89 252.442 206.558 252.109C206.392 251.943 206.06 251.777 205.894 251.444C205.396 250.946 205.063 250.115 204.731 249.284C204.565 248.952 204.399 248.619 204.233 248.287C203.901 247.788 203.735 246.957 203.735 246.459C203.901 246.459 204.067 246.459 204.233 246.459C205.894 246.791 207.388 247.456 208.052 248.453C208.218 248.619 208.218 248.785 208.384 248.952C208.882 249.783 209.381 250.78 211.373 250.614C212.701 250.614 214.03 250.281 215.192 249.949L215.524 249.783C216.853 249.45 218.347 249.118 220.007 248.619C221.336 248.287 222.664 248.121 223.992 247.955C225.487 247.788 226.981 247.622 228.476 247.124C231.298 246.293 233.789 244.963 236.114 242.969C236.612 242.47 237.11 241.972 237.608 241.473C238.272 240.808 238.936 240.144 239.767 239.645C240.763 238.98 241.759 238.316 242.589 237.318C243.918 235.823 244.914 233.662 245.91 230.837C246.076 230.338 246.242 229.674 246.408 229.175C246.574 228.677 246.574 228.178 246.74 227.679L246.906 227.347C247.405 225.851 247.737 224.522 247.903 222.694C247.903 221.863 247.903 221.198 248.069 220.367C248.069 219.204 248.235 218.04 248.235 216.877C248.235 216.378 248.235 216.046 248.235 215.548C248.235 214.717 248.069 213.886 248.235 213.221C251.888 213.387 255.707 213.387 259.36 213.387H260.024C263.677 213.387 268.99 212.889 273.805 210.562C277.126 208.9 278.621 206.407 279.949 203.25C280.281 202.419 280.945 201.588 281.609 201.421C281.942 201.421 281.942 201.421 282.108 201.421C282.772 201.754 283.27 202.585 283.934 203.25C285.096 204.579 286.259 206.075 288.417 206.573C290.908 207.238 294.229 206.075 294.893 203.582L295.059 202.917C295.225 202.086 295.391 201.421 295.889 200.757C296.055 200.424 296.553 200.258 297.052 199.926C297.55 199.593 298.214 199.261 298.712 198.762C300.372 197.267 302.199 195.771 304.191 193.943C305.686 192.78 307.346 191.949 309.007 191.118C309.837 190.785 310.667 190.287 311.663 189.788C312.826 189.123 314.486 188.126 315.648 186.132C315.98 185.467 316.146 185.301 316.645 184.802C317.309 184.138 317.973 183.307 318.471 182.31C319.301 180.814 320.132 179.152 320.796 177.49C321.626 175.496 322.29 173.668 323.452 171.84C324.283 170.51 325.445 169.347 326.441 169.181C327.437 169.014 329.098 169.347 330.094 169.845C330.592 170.178 331.256 170.676 331.755 171.175C332.917 172.172 334.245 173.169 336.072 173.834C336.736 174 337.566 174.333 338.23 174.665C339.891 175.33 341.551 175.994 343.544 175.994C343.876 175.994 344.374 175.994 344.872 175.994C346.366 175.994 348.027 175.994 349.687 175.662C351.016 175.33 352.178 174.831 353.008 174.166C353.174 174 353.506 173.668 353.506 173.502V173.335C353.506 173.335 353.838 173.169 354.004 173.169C354.336 173.003 354.669 172.837 355.001 172.837C356.661 171.84 358.322 170.843 359.65 169.679C360.148 169.347 360.646 169.181 361.144 168.848C361.642 168.516 362.307 168.184 362.971 167.851C363.469 167.519 363.801 167.186 364.133 166.854C364.631 166.522 364.963 166.023 365.295 165.857C365.461 165.857 365.793 165.857 366.126 165.857C366.458 165.857 366.956 165.857 367.454 165.691C368.782 165.358 370.111 164.86 371.273 163.863C371.605 163.696 372.103 163.198 372.435 162.865C372.767 162.533 373.099 162.201 373.764 161.702C374.096 161.37 374.428 161.037 374.926 160.871C376.088 159.874 376.918 159.209 378.247 158.711C378.579 158.545 379.077 158.378 379.409 158.046C379.741 157.88 379.907 157.714 380.239 157.714C381.402 157.381 383.062 157.049 384.39 157.049H384.888C385.221 157.049 385.387 157.049 385.719 157.049C386.549 157.049 387.379 157.215 388.209 157.547C388.375 157.547 388.541 157.714 388.541 157.714C389.704 158.212 390.534 159.043 391.032 160.206L391.198 160.539C391.364 160.871 391.696 161.702 391.696 161.868C391.696 162.533 391.53 163.198 391.198 164.195C391.032 164.86 390.534 165.192 389.704 165.857C389.372 166.189 388.873 166.355 388.541 166.688L388.375 166.854C387.711 167.353 387.047 168.184 386.549 169.014C386.217 169.679 386.217 170.344 386.217 170.843V171.341C386.051 171.341 386.051 171.341 386.051 171.341Z"/>
<path id="c-5" class="cursor-pointer fill-orange-hover" d="M386.217 153.726H386.051C385.553 153.726 384.889 153.726 384.39 153.726C382.73 153.726 380.904 154.058 379.409 154.557C378.745 154.723 378.247 155.055 377.915 155.222C377.749 155.388 377.417 155.554 377.251 155.554C375.59 156.219 374.262 157.216 373.1 158.213C372.767 158.545 372.435 158.711 371.937 159.044C371.273 159.542 370.941 159.875 370.277 160.54C370.111 160.706 369.779 160.872 369.613 161.038C368.782 161.537 367.952 162.035 367.122 162.201C366.956 162.201 366.624 162.201 366.458 162.201C365.96 162.201 365.295 162.201 364.465 162.534C363.469 162.866 362.805 163.531 362.141 164.196C361.809 164.528 361.643 164.694 361.31 164.86C360.812 165.193 360.314 165.525 359.816 165.691C359.152 166.024 358.654 166.356 357.99 166.855C356.661 167.852 355.001 168.849 353.506 169.846C353.34 169.846 353.174 170.012 353.008 170.012C352.676 170.179 352.178 170.345 351.68 170.677C351.348 171.009 351.016 171.342 350.85 171.508L350.684 171.674C350.352 172.007 349.853 172.173 349.023 172.339C347.695 172.671 346.367 172.671 345.038 172.505C344.54 172.505 344.208 172.505 343.71 172.505C342.381 172.505 341.053 172.007 339.559 171.342C338.729 171.01 337.898 170.677 337.068 170.345C335.906 170.012 334.91 169.181 333.913 168.35C333.249 167.852 332.751 167.353 332.087 166.855C330.426 165.691 327.936 165.193 325.943 165.691C323.785 166.19 321.792 168.184 320.962 169.846C319.634 171.84 318.803 174.001 317.973 175.995C317.309 177.491 316.479 179.153 315.815 180.482C315.482 181.147 315.15 181.646 314.652 181.978C313.822 182.643 313.49 183.308 312.992 184.138C312.494 185.136 311.663 185.8 310.335 186.465C309.505 186.964 308.675 187.296 307.844 187.628C306.018 188.459 304.025 189.457 302.365 190.786C300.206 192.614 298.214 194.276 296.553 195.772C296.387 195.938 295.889 196.104 295.557 196.437C294.893 196.769 293.897 197.434 293.233 198.265C292.568 199.428 292.236 200.425 291.904 201.422L291.738 202.087C291.572 202.419 290.244 202.918 289.248 202.752C288.085 202.419 287.421 201.588 286.591 200.425C285.927 199.594 285.097 198.597 284.1 197.932C283.104 197.267 281.942 197.101 280.613 197.434C278.787 198.098 277.292 199.76 276.794 201.256C275.798 203.915 274.802 205.577 272.311 206.74C267.994 208.735 263.179 209.233 260.024 209.233H259.36C255.375 209.233 251.224 209.233 247.239 208.901C246.574 208.901 246.076 209.233 245.744 209.732C244.748 211.394 244.914 213.388 244.914 214.884C244.914 215.216 244.914 215.714 244.914 216.047C244.914 217.21 244.914 218.207 244.748 219.371C244.748 220.202 244.582 221.033 244.582 221.864C244.582 223.193 244.25 224.356 243.752 225.686L243.586 226.018C243.42 226.517 243.254 227.182 243.088 227.68C242.921 228.179 242.921 228.677 242.755 229.176C241.925 231.669 241.095 233.331 240.099 234.494C239.435 235.159 238.77 235.657 237.94 236.322C236.944 236.987 236.114 237.818 235.284 238.649C234.951 239.147 234.453 239.48 233.955 239.978C231.963 241.64 229.97 242.803 227.479 243.468C226.151 243.801 224.823 243.967 223.494 244.133C222 244.299 220.506 244.465 219.011 244.964C217.849 245.296 216.853 245.629 216.022 245.795C215.69 245.795 215.524 245.961 215.192 245.961C214.86 245.462 214.694 244.964 214.86 244.133C214.86 243.634 215.026 243.136 215.026 242.637C215.192 241.308 215.358 239.978 215.524 238.482C215.524 237.652 215.524 236.987 215.358 236.322C215.192 235.159 214.362 234.494 213.864 233.995C213.698 233.829 213.532 233.663 213.366 233.497C213.366 233.331 213.2 233.164 213.2 232.832C213.2 232.666 213.2 232.5 213.2 232.333C213.034 231.004 212.369 230.339 211.705 229.508L211.539 229.342C211.041 228.843 210.377 228.013 209.215 227.68C208.717 227.514 208.052 227.348 207.388 227.348C206.226 227.348 205.23 227.68 204.233 227.846C203.735 228.013 203.403 228.013 202.905 228.179C202.739 228.179 202.407 228.345 202.241 228.345C202.075 228.345 201.909 228.511 201.909 228.511C201.909 228.511 201.577 228.345 201.411 228.345C201.079 228.179 200.912 228.013 200.58 227.846C200.082 227.68 199.584 227.514 199.086 227.514C198.92 227.514 198.754 227.514 198.588 227.348H198.422C198.422 223.692 197.592 219.869 196.927 217.376C196.429 215.548 195.599 213.72 194.769 211.892C194.437 210.23 193.773 209.067 192.776 208.07C192.444 207.737 192.112 207.405 191.614 207.239C188.625 205.078 184.972 203.915 181.485 203.915C180.987 203.915 180.489 203.915 179.991 203.915C178.497 203.915 176.67 203.749 175.01 204.247C173.847 204.58 173.017 205.078 172.187 205.411C171.025 206.076 170.028 206.574 168.7 206.408C164.051 206.242 158.405 202.918 155.251 198.763C154.918 198.265 154.586 197.766 154.42 197.434C153.424 195.938 152.594 194.775 149.771 193.944C148.277 193.445 147.447 192.282 146.45 190.952C145.288 189.457 144.126 187.795 141.967 186.964C141.801 186.964 141.635 186.798 141.635 186.798C141.635 186.798 141.635 186.798 141.469 186.798C141.469 186.798 141.469 186.798 141.303 186.798C138.48 185.8 135.99 184.969 133.831 184.138H133.665H133.499C128.518 182.477 126.027 181.812 124.865 181.479C125.197 180.815 126.193 179.651 127.853 177.989C128.019 177.823 128.019 177.823 128.185 177.657C128.85 176.992 129.348 176.494 129.846 175.995C131.008 174.167 131.506 171.84 131.838 169.846C132.004 169.181 132.004 168.517 132.171 167.852C132.503 166.855 132.503 165.691 132.669 164.528C133.001 162.035 133.333 159.376 134.661 158.047C135.491 157.216 136.654 156.883 137.982 156.551C138.812 156.219 139.809 156.052 140.639 155.554C142.963 154.391 144.458 152.562 145.952 150.901C147.28 149.571 148.443 148.242 149.937 147.411C151.93 146.247 153.424 144.918 155.085 143.422C155.749 142.757 156.413 142.259 157.077 141.76C157.077 141.76 157.077 141.76 157.243 141.594L157.409 141.428C157.409 141.428 157.409 141.428 157.575 141.428C159.07 140.264 164.715 135.944 165.047 135.777C165.379 135.611 165.545 135.279 165.711 134.946C166.708 131.789 168.036 129.296 169.198 127.468C170.859 124.975 172.519 123.313 174.18 122.316C175.508 121.817 177.002 121.651 178.497 121.485C179.493 121.319 180.489 121.153 181.485 120.986C183.146 120.654 184.806 120.322 186.301 120.488C186.799 120.488 187.131 120.654 187.629 120.986C188.293 121.319 188.957 121.817 189.456 122.15C190.286 122.815 191.116 123.479 192.278 123.812C195.931 125.474 199.75 124.476 202.905 123.479C204.565 122.981 206.06 122.482 207.554 122.482C211.207 122.15 215.026 122.482 218.679 122.815C222 123.147 225.487 123.313 228.974 123.147C231.963 122.981 234.951 122.648 237.774 122.482C241.593 122.15 245.744 121.817 249.729 121.651C255.209 121.651 261.352 121.153 265.171 116.832C266.666 115.17 271.481 114.339 275.466 114.339C280.613 114.339 286.923 116.167 291.904 119.158C297.218 122.316 301.867 123.978 305.686 123.812C308.343 123.812 310.999 122.815 313.822 120.986C314.32 120.654 314.652 120.322 315.15 120.156C317.641 118.494 319.135 117.496 322.29 117.663C325.611 117.829 328.932 118.992 332.087 119.989C334.411 120.82 335.574 122.15 337.068 123.978C337.898 124.809 338.562 125.806 339.559 126.803C341.551 128.631 344.374 129.13 346.865 129.296C348.027 129.462 349.189 129.628 350.186 129.961C353.838 131.124 356.993 133.118 360.48 135.445C362.307 136.608 364.133 137.439 365.96 138.27C367.62 138.935 369.114 139.6 370.443 140.431C371.771 141.262 372.933 142.259 374.262 143.422C375.59 144.585 377.085 145.915 378.579 146.912C381.568 148.075 384.723 150.402 386.217 153.726Z"/>
<path id="c-2" class="cursor-pointer fill-orange-hover active-country" d="M195.765 229.508C195.599 232.333 194.769 234.493 193.441 236.155C192.278 237.651 190.286 238.316 187.131 238.316C184.64 238.316 182.15 237.983 179.659 237.651C177.334 237.318 175.01 237.152 172.685 236.986C170.028 236.82 167.538 237.485 164.383 238.98C164.051 239.147 163.553 239.313 163.221 239.645C162.39 240.144 161.892 240.476 161.228 240.31C160.232 240.31 158.571 239.811 157.409 239.479C157.077 239.313 156.745 239.313 156.413 239.147C154.919 238.648 153.756 238.149 152.428 237.485C151.93 237.152 151.432 236.986 150.767 236.654C149.273 235.823 147.779 235.49 146.284 235.324C145.288 235.158 144.458 234.992 143.462 234.659C142.631 234.327 141.801 233.995 140.971 233.662C140.141 233.33 139.476 232.998 138.646 232.665C134.993 231.336 132.005 230.172 128.518 229.84C127.023 229.674 125.529 229.674 124.034 229.508C122.042 229.508 120.049 229.508 118.223 229.009C116.729 228.51 115.566 227.679 114.238 226.849C112.91 225.851 111.415 224.854 109.589 224.356C108.758 224.023 107.928 223.857 107.098 223.525C106.6 223.359 106.102 223.192 105.604 223.026C104.939 222.694 104.275 222.694 103.611 222.528C102.449 222.361 101.785 222.195 101.12 221.697C99.6261 220.367 97.9657 218.373 97.1354 216.711C96.3052 215.049 96.9694 212.889 97.4675 210.728C98.4638 207.072 101.785 204.081 105.604 203.25C106.434 203.083 107.264 202.917 108.094 202.917C109.423 202.751 110.917 202.585 112.411 202.086C115.732 200.923 117.393 200.258 117.725 196.103C117.725 195.937 117.725 195.937 117.725 195.605V195.273C117.891 192.78 118.223 190.619 118.887 188.459C118.887 188.126 119.053 187.794 119.219 187.462C119.385 186.797 119.883 185.301 120.215 184.969C120.215 184.969 120.382 184.969 120.548 184.969C121.046 184.969 121.544 185.135 122.042 185.135C122.042 185.135 122.208 185.135 122.374 185.135C122.706 185.467 123.038 185.8 123.536 185.966C126.027 187.462 128.518 187.628 131.174 187.96C131.839 187.96 132.337 188.126 133.001 188.126H133.167C135.491 188.957 137.982 189.788 140.639 190.619C140.805 190.785 141.137 190.785 141.303 190.952C142.465 191.45 143.295 192.447 144.126 193.777C145.288 195.439 146.616 197.267 149.273 198.098C150.933 198.596 151.266 199.095 152.096 200.258C152.428 200.757 152.76 201.255 153.092 201.754C156.911 206.74 163.387 210.396 169.032 210.728C171.191 210.894 172.851 210.063 174.18 209.399C175.01 209.066 175.674 208.734 176.338 208.401C177.5 208.069 178.829 208.235 180.323 208.235C180.821 208.235 181.485 208.235 181.984 208.235C184.806 208.235 187.629 209.232 189.954 210.894C190.784 211.891 191.448 212.889 192.112 214.052C192.112 214.384 192.278 214.883 192.278 215.381C192.278 216.046 192.444 216.877 192.444 217.542C192.444 218.539 192.61 219.702 192.61 220.7C192.776 222.195 193.109 223.691 193.441 225.353L193.607 226.018C193.939 227.015 194.105 228.344 194.935 229.341C195.433 229.175 195.599 229.341 195.765 229.508Z"/>
<path id="c-6" class="cursor-pointer fill-orange-hover" d="M179.991 116.997C178.497 117.163 176.006 117.496 173.183 119.157C171.025 120.487 168.866 122.481 166.708 125.805C165.379 127.799 164.217 130.292 163.221 133.284C161.892 134.281 158.571 136.774 156.911 138.103C156.911 138.103 156.911 138.103 156.745 138.103C156.413 138.435 156.081 138.602 155.915 138.768C155.749 138.768 155.749 138.934 155.583 138.934C154.752 139.599 154.088 140.264 153.424 140.762C151.93 142.092 150.435 143.421 148.775 144.252C146.782 145.415 145.454 146.911 143.96 148.407C142.631 149.903 141.303 151.398 139.643 152.229C138.978 152.562 138.314 152.728 137.484 153.06C135.99 153.559 134.329 154.057 132.835 155.387C130.51 157.547 130.178 160.871 129.846 163.862C129.68 165.026 129.514 166.023 129.348 166.854C129.182 167.519 129.016 168.183 129.016 169.014C128.684 170.842 128.352 172.67 127.521 173.834C127.355 174.166 127.023 174.499 126.525 174.997L126.359 175.163C124.2 177.158 119.883 180.648 119.219 180.98C117.725 181.811 117.061 183.805 116.562 185.467C116.396 185.799 116.396 186.132 116.23 186.298C116.064 186.63 116.064 186.963 115.898 187.295C115.732 187.794 115.566 188.292 115.566 188.791C115.566 188.957 115.566 189.123 115.566 189.123C115.4 189.788 115.234 190.619 115.234 191.284C115.234 191.616 115.234 191.782 115.068 192.115C114.902 192.447 115.068 192.613 115.068 192.946C106.102 192.779 95.1429 191.948 90.3276 191.616L88.3351 191.45C87.6709 191.45 87.1728 191.45 86.5086 191.45C84.6821 191.45 83.0217 191.284 81.6934 190.785C79.2027 189.788 77.8744 189.289 75.0516 189.289H74.8856C73.3912 189.289 71.8968 188.957 70.2364 188.625C68.742 188.292 67.2476 187.96 65.7532 187.96C64.2588 187.96 62.9304 188.292 61.7681 188.791C60.7719 189.123 59.7756 189.456 58.9454 189.456C57.285 189.289 55.6245 188.791 53.9641 188.126C53.466 187.96 52.9678 187.794 52.3037 187.461C51.8055 187.295 51.4735 187.129 51.1414 187.129C50.4772 186.963 49.9791 186.797 49.3149 186.298C45.4959 183.307 42.175 183.14 37.8579 182.808H37.6919C36.5295 182.808 35.8654 181.977 34.7031 180.814C34.2049 180.315 33.7068 179.65 33.2087 179.152C32.0464 178.155 30.8841 177.822 29.8878 177.49C29.2236 177.324 28.7255 177.158 28.2274 176.991C26.899 176.16 26.0688 174.665 25.0726 173.003C24.5744 172.172 24.0763 171.341 23.5782 170.51C21.7517 168.017 19.261 166.854 16.9364 165.691C16.6043 165.524 16.1062 165.358 15.7741 165.192C15.1099 164.86 14.7779 164.195 14.1137 163.364C13.4495 162.367 12.7853 161.037 11.291 160.206C9.63052 159.375 7.638 159.542 5.97756 159.542H5.64548C5.31339 159.542 4.81526 159.542 4.31713 159.708C2.82274 159.874 0.664174 160.04 -2.47428e-09 159.375C0.166043 159.542 0.166043 158.711 0.166043 158.212C0.49813 154.556 3.819 150.069 5.64548 147.576C8.46821 143.92 7.97008 139.931 7.638 136.275C7.47195 134.281 7.30591 132.286 7.47195 130.458C7.97008 127.467 9.79656 124.974 11.7891 122.315C13.1174 120.487 14.6118 118.493 15.6081 116.332C18.4308 110.017 20.9215 104.533 25.5707 99.2147C26.2349 98.5499 26.733 97.5528 27.2311 96.7219C28.0613 95.3923 28.8916 93.8966 29.8878 93.3981C31.0501 92.8995 32.7106 92.8995 34.371 93.0657C35.0352 93.0657 35.8654 93.2319 36.5295 93.2319C41.5108 93.2319 44.3336 91.9024 48.3186 88.9109C50.3111 87.4152 52.4697 86.9167 54.6283 87.5814C55.7906 87.9138 56.9529 88.2462 58.1152 88.7448C59.1115 89.0771 60.1077 89.5757 61.104 89.7419C64.923 90.9052 69.7382 91.7362 73.5572 89.0771C76.8781 86.7505 77.7083 83.0943 78.3725 79.7705L78.5385 78.9396C79.3687 75.1172 79.0367 70.9625 77.3762 66.4754C76.0479 62.653 73.5572 59.994 71.0666 57.5011C69.7382 56.1716 68.4099 54.6759 67.2476 53.3464C66.5834 52.5154 65.7532 51.8507 65.089 51.0197C63.9267 49.8564 62.5984 48.6931 61.4361 47.6959C60.7719 47.1974 60.2738 46.6988 59.6096 46.2002C57.9491 44.7045 56.1227 43.0426 54.7943 41.2145C53.7981 39.885 52.6358 38.2231 50.6432 37.0598C49.9791 36.7274 49.3149 36.2289 48.6507 36.0627C47.6545 35.5641 46.6582 35.0655 45.994 34.4008L45.3298 33.736C44.0015 32.5727 42.8392 31.5755 41.1788 30.5784H58.1152C58.9454 30.5784 59.7756 29.9137 59.7756 28.9165V9.63852H128.019C128.186 9.63852 128.186 9.63852 128.186 9.63852C128.518 9.63852 128.85 9.47233 129.182 9.47233C129.846 9.30614 130.51 9.13995 131.008 9.30614C131.34 9.30614 132.005 9.63852 132.503 9.9709C132.835 10.1371 133.167 10.3033 133.499 10.4695C135.159 11.1342 136.654 11.9652 137.65 13.1285C137.816 13.4609 137.982 14.9566 138.314 20.607C135.824 21.2718 133.001 22.1027 130.842 23.4323C128.186 25.2603 128.186 28.5841 128.352 31.4094C128.352 32.4065 128.352 33.2374 128.352 33.9022C128.186 35.0655 128.019 36.2289 127.853 37.3922C127.355 40.2174 127.023 43.2088 127.023 46.2002C127.023 48.1945 127.189 50.1888 127.521 52.1831C127.853 54.8421 128.019 57.3349 127.853 59.8278C127.687 60.6587 127.687 61.6559 127.521 62.4868C127.355 64.1487 127.023 65.8106 127.023 67.4725C127.023 68.802 127.023 69.9653 127.189 71.2949C127.189 72.292 127.355 73.4553 127.355 74.4525C127.355 75.9482 127.189 77.4439 127.023 78.9396C127.023 79.4381 126.857 79.9367 126.857 80.6015C126.525 84.4238 126.027 89.9081 127.189 94.7276C128.186 98.8823 128.352 102.206 127.687 105.53C127.355 106.859 127.023 108.688 127.853 110.516C129.016 112.842 132.171 114.006 133.333 114.338C134.163 114.67 134.993 114.67 135.657 114.67C136.322 114.67 136.986 114.504 137.65 114.338C137.982 114.338 138.148 114.172 138.48 114.006C139.144 113.673 139.643 113.341 140.141 113.008C140.473 112.842 140.805 112.51 140.971 112.177C141.137 112.011 141.469 111.679 141.635 111.513C142.299 110.848 142.797 110.183 143.295 109.685C143.628 109.186 144.126 108.688 144.458 108.355C145.62 107.026 146.616 105.364 147.613 103.868C147.613 103.702 147.779 103.702 147.779 103.536C150.269 104.699 153.258 104.865 155.915 105.031H156.579C158.073 105.031 159.568 105.364 161.062 105.696C161.892 105.862 162.889 106.028 163.885 106.195C167.372 106.693 178.331 113.008 179.991 116.997Z"/>
<path d="M173.515 9.639C172.685 11.1347 171.689 12.9628 171.025 14.9571C170.36 17.2837 169.696 19.7766 169.198 22.1032V22.2694C168.866 23.5989 168.534 25.0946 168.202 26.4241C167.87 27.7537 167.704 28.917 167.372 30.2465C167.206 30.7451 167.04 31.4098 166.873 31.9084C166.541 33.2379 166.043 34.5674 165.877 35.8969C165.877 37.0603 166.375 38.0574 166.707 38.7222C167.206 39.5531 167.206 39.7193 167.04 40.2179C166.707 40.8826 166.375 41.215 166.043 41.7136C165.379 42.7107 164.549 43.874 164.383 45.8683C164.383 46.6993 164.383 47.6964 164.383 48.5274C164.383 49.1921 164.549 49.6907 164.715 50.1893C164.715 50.5216 164.881 50.854 164.881 51.1864C164.881 51.685 164.715 52.3497 164.549 53.0145C164.217 54.1778 164.051 55.3411 164.217 56.8368C164.549 58.3325 165.545 59.4959 166.541 60.6592C167.04 61.1578 167.372 61.6563 167.704 61.9887C168.368 63.152 168.368 64.8139 168.202 66.4758V67.1406C168.036 70.9629 166.541 73.622 164.549 76.9458C164.051 77.7767 163.719 78.6077 163.221 79.4386C162.556 80.7681 162.058 81.9314 161.228 82.7624C160.564 83.5933 159.734 84.2581 159.069 85.0891C157.575 86.5848 155.915 88.0805 154.752 90.2409C153.59 92.069 151.764 93.8971 149.771 95.559C148.443 96.5561 147.28 97.7195 146.118 99.5476C145.62 100.379 145.122 101.043 144.624 101.874C143.793 103.37 142.963 104.699 141.801 105.863C141.303 106.361 140.971 106.86 140.473 107.358C138.148 110.184 136.654 111.679 133.997 110.848C132.336 110.35 130.842 109.519 130.51 108.688C130.178 108.023 130.344 106.86 130.51 105.863C131.34 102.207 131.174 98.3842 130.012 93.7309C129.016 89.41 129.348 84.2581 129.68 80.6019C129.68 80.1034 129.846 79.6048 129.846 79.1062C130.012 77.6105 130.178 75.9486 130.178 74.2867C130.178 73.1234 130.178 71.9601 130.012 70.9629C130.012 69.7996 129.846 68.4701 129.846 67.3068C129.846 65.8111 130.012 64.3154 130.344 62.8197C130.51 61.8225 130.676 60.8254 130.676 59.9944C131.008 57.1692 130.676 54.344 130.344 51.685C130.178 49.6907 130.012 47.8626 130.012 46.0345C130.012 43.2093 130.344 40.5503 130.842 37.725C131.008 36.5617 131.174 35.3984 131.34 34.2351C131.506 33.2379 131.506 32.2408 131.34 31.0774C131.34 28.917 131.174 26.7565 132.336 25.9256C133.997 24.7622 136.488 24.0975 138.812 23.4327L140.14 23.1003L140.971 22.9342C141.801 22.6018 142.631 22.2694 143.295 22.1032C143.959 21.7708 144.624 21.4385 145.288 21.2723H145.62C146.284 21.1061 147.114 20.7737 147.945 19.9427C149.273 18.447 149.937 16.619 150.601 14.9571L150.767 14.6247C151.431 12.9628 152.428 11.3009 153.756 10.1376C154.254 9.97137 154.586 9.80518 154.918 9.47281C156.081 8.47567 157.243 7.47853 158.073 5.65045C158.571 4.32093 159.069 3.1576 159.402 1.82809L159.568 1.32952C159.568 0.997137 159.9 0.332379 159.9 0.16619C160.066 0 160.564 0 161.56 0C162.224 0 163.054 0 164.051 0.16619H164.383C165.711 0.332379 167.04 0.498569 168.7 1.16333C168.866 1.16333 169.198 1.32952 169.364 1.32952C169.696 1.49571 170.36 1.6619 170.526 1.6619C170.526 1.82809 170.526 1.82809 170.692 1.99427C170.859 2.32665 171.025 2.49284 171.191 2.82522C171.523 3.32379 172.021 3.48998 172.353 3.65617H172.519C173.017 4.15474 173.349 5.48426 173.515 6.3152C174.013 8.14329 174.013 8.64186 173.515 9.639Z"/>
</svg>
